<svg width="27" height="29" viewBox="0 0 27 29" fill="none" xmlns="http://www.w3.org/2000/svg">
<path d="M8.09125 1.20703C8.32331 1.20703 8.54587 1.30659 8.70997 1.48382C8.87406 1.66104 8.96625 1.9014 8.96625 2.15203V3.91918H18.3625V2.16418C18.3625 1.91355 18.4547 1.67319 18.6188 1.49597C18.7829 1.31874 19.0054 1.21918 19.2375 1.21918C19.4696 1.21918 19.6921 1.31874 19.8562 1.49597C20.0203 1.67319 20.1125 1.91355 20.1125 2.16418V3.91918H23.5C24.1628 3.91918 24.7985 4.20346 25.2673 4.70952C25.7361 5.21557 25.9997 5.90198 26 6.61783V25.5084C25.9997 26.2242 25.7361 26.9106 25.2673 27.4167C24.7985 27.9228 24.1628 28.207 23.5 28.207H3.5C2.83718 28.207 2.20148 27.9228 1.73267 27.4167C1.26387 26.9106 1.00033 26.2242 1 25.5084V6.61783C1.00033 5.90198 1.26387 5.21557 1.73267 4.70952C2.20148 4.20346 2.83718 3.91918 3.5 3.91918H7.21625V2.15068C7.21658 1.90029 7.30891 1.66027 7.47297 1.48334C7.63703 1.30641 7.8594 1.20703 8.09125 1.20703ZM2.75 11.6587V25.5084C2.75 25.6148 2.7694 25.7201 2.80709 25.8184C2.84478 25.9166 2.90003 26.0059 2.96967 26.0811C3.03931 26.1564 3.12199 26.216 3.21299 26.2567C3.30398 26.2974 3.40151 26.3184 3.5 26.3184H23.5C23.5985 26.3184 23.696 26.2974 23.787 26.2567C23.878 26.216 23.9607 26.1564 24.0303 26.0811C24.1 26.0059 24.1552 25.9166 24.1929 25.8184C24.2306 25.7201 24.25 25.6148 24.25 25.5084V11.6776L2.75 11.6587ZM9.33375 20.9427V23.1918H7.25V20.9427H9.33375ZM14.5413 20.9427V23.1918H12.4587V20.9427H14.5413ZM19.75 20.9427V23.1918H17.6663V20.9427H19.75ZM9.33375 15.5737V17.8228H7.25V15.5737H9.33375ZM14.5413 15.5737V17.8228H12.4587V15.5737H14.5413ZM19.75 15.5737V17.8228H17.6663V15.5737H19.75ZM7.21625 5.80783H3.5C3.40151 5.80783 3.30398 5.82878 3.21299 5.86949C3.12199 5.91019 3.03931 5.96986 2.96967 6.04507C2.90003 6.12029 2.84478 6.20958 2.80709 6.30786C2.7694 6.40613 2.75 6.51146 2.75 6.61783V9.77008L24.25 9.78898V6.61783C24.25 6.51146 24.2306 6.40613 24.1929 6.30786C24.1552 6.20958 24.1 6.12029 24.0303 6.04507C23.9607 5.96986 23.878 5.91019 23.787 5.86949C23.696 5.82878 23.5985 5.80783 23.5 5.80783H20.1125V7.06198C20.1125 7.31261 20.0203 7.55298 19.8562 7.7302C19.6921 7.90742 19.4696 8.00698 19.2375 8.00698C19.0054 8.00698 18.7829 7.90742 18.6188 7.7302C18.4547 7.55298 18.3625 7.31261 18.3625 7.06198V5.80783H8.96625V7.04983C8.96625 7.30046 8.87406 7.54083 8.70997 7.71805C8.54587 7.89527 8.32331 7.99483 8.09125 7.99483C7.85919 7.99483 7.63663 7.89527 7.47253 7.71805C7.30844 7.54083 7.21625 7.30046 7.21625 7.04983V5.80783Z" fill="white" stroke="white" stroke-width="0.7"/>
</svg>
