<svg width="25" height="27" viewBox="0 0 25 27" fill="none" xmlns="http://www.w3.org/2000/svg">
<path d="M10 10.7609C10 10.4948 9.92669 10.2348 9.78934 10.0136C9.65199 9.79237 9.45677 9.61996 9.22836 9.51815C8.99995 9.41634 8.74862 9.38971 8.50614 9.44161C8.26367 9.49351 8.04094 9.62162 7.86612 9.80973C7.69131 9.99785 7.57226 10.2375 7.52402 10.4985C7.47579 10.7594 7.50055 11.0298 7.59516 11.2756C7.68977 11.5214 7.84998 11.7315 8.05554 11.8793C8.2611 12.0271 8.50278 12.106 8.75001 12.106C9.08153 12.106 9.39947 11.9643 9.63389 11.712C9.86831 11.4597 10 11.1176 10 10.7609ZM15.625 16.222C15.4831 16.1325 15.3261 16.074 15.1632 16.05C15.0002 16.0259 14.8344 16.0366 14.6753 16.0816C14.5163 16.1266 14.367 16.2049 14.2361 16.3121C14.1052 16.4193 13.9952 16.5532 13.9125 16.7063C13.7706 16.9747 13.5651 17.198 13.317 17.3533C13.0689 17.5085 12.787 17.5904 12.5 17.5904C12.213 17.5904 11.9311 17.5085 11.683 17.3533C11.4349 17.198 11.2294 16.9747 11.0875 16.7063C11.0048 16.5532 10.8948 16.4193 10.7639 16.3121C10.633 16.2049 10.4838 16.1266 10.3247 16.0816C10.1656 16.0366 9.99979 16.0259 9.83683 16.05C9.67387 16.074 9.51693 16.1325 9.37501 16.222C9.08909 16.3995 8.88 16.6914 8.79335 17.0341C8.70671 17.3768 8.74954 17.7425 8.91251 18.0514C9.27506 18.7304 9.79764 19.2945 10.4275 19.6868C11.0574 20.079 11.7723 20.2856 12.5 20.2856C13.2278 20.2856 13.9426 20.079 14.5725 19.6868C15.2024 19.2945 15.7249 18.7304 16.0875 18.0514C16.2505 17.7425 16.2933 17.3768 16.2067 17.0341C16.12 16.6914 15.9109 16.3995 15.625 16.222ZM16.25 9.41576C16.0028 9.41576 15.7611 9.49465 15.5555 9.64245C15.35 9.79026 15.1898 10.0003 15.0952 10.2461C15.0005 10.4919 14.9758 10.7624 15.024 11.0233C15.0723 11.2842 15.1913 11.5239 15.3661 11.712C15.5409 11.9001 15.7637 12.0282 16.0061 12.0801C16.2486 12.132 16.5 12.1054 16.7284 12.0036C16.9568 11.9018 17.152 11.7294 17.2893 11.5082C17.4267 11.287 17.5 11.0269 17.5 10.7609C17.5 10.4041 17.3683 10.062 17.1339 9.80973C16.8995 9.55748 16.5815 9.41576 16.25 9.41576ZM12.5 0C10.0277 0 7.61099 0.788893 5.55538 2.26692C3.49976 3.74494 1.89761 5.84571 0.951512 8.30358C0.00541605 10.7614 -0.242126 13.466 0.24019 16.0753C0.722505 18.6845 1.91301 21.0813 3.66117 22.9624C5.40933 24.8436 7.63661 26.1247 10.0614 26.6437C12.4861 27.1627 14.9995 26.8964 17.2836 25.8783C19.5676 24.8602 21.5199 23.1361 22.8934 20.9241C24.2669 18.7121 25 16.1115 25 13.4511C25 11.6847 24.6767 9.93554 24.0485 8.30358C23.4203 6.67162 22.4996 5.18878 21.3388 3.93973C20.1781 2.69068 18.8001 1.69988 17.2836 1.0239C15.767 0.347923 14.1415 0 12.5 0ZM12.5 24.212C10.1716 24.2228 7.91276 23.3589 6.1129 21.7694C4.31304 20.1799 3.08503 17.9644 2.64065 15.5049C2.19627 13.0454 2.56338 10.4962 3.67867 8.29677C4.79395 6.09737 6.5875 4.38569 8.75001 3.45693C8.73715 3.64948 8.73715 3.84278 8.75001 4.03533C8.75001 5.10556 9.14509 6.13196 9.84835 6.88873C10.5516 7.6455 11.5054 8.07065 12.5 8.07065C12.8315 8.07065 13.1495 7.92894 13.3839 7.67668C13.6183 7.42442 13.75 7.08229 13.75 6.72554C13.75 6.3688 13.6183 6.02667 13.3839 5.77441C13.1495 5.52215 12.8315 5.38043 12.5 5.38043C12.1685 5.38043 11.8505 5.23872 11.6161 4.98646C11.3817 4.7342 11.25 4.39207 11.25 4.03533C11.25 3.67858 11.3817 3.33645 11.6161 3.08419C11.8505 2.83193 12.1685 2.69022 12.5 2.69022C15.1522 2.69022 17.6957 3.82395 19.5711 5.842C21.4464 7.86006 22.5 10.5971 22.5 13.4511C22.5 16.305 21.4464 19.0421 19.5711 21.0602C17.6957 23.0782 15.1522 24.212 12.5 24.212Z" fill="white"/>
</svg>
