<svg width="25" height="25" viewBox="0 0 25 25" fill="none" xmlns="http://www.w3.org/2000/svg">
<path d="M8.12492 2.08398H16.8749C20.2083 2.08398 22.9166 4.79232 22.9166 8.12565V16.8757C22.9166 18.478 22.2801 20.0147 21.147 21.1478C20.014 22.2808 18.4773 22.9173 16.8749 22.9173H8.12492C4.79159 22.9173 2.08325 20.209 2.08325 16.8757V8.12565C2.08325 6.5233 2.71978 4.98658 3.85282 3.85355C4.98585 2.72052 6.52257 2.08398 8.12492 2.08398ZM7.91658 4.16732C6.92202 4.16732 5.9682 4.56241 5.26493 5.26567C4.56167 5.96893 4.16659 6.92276 4.16659 7.91732V17.084C4.16659 19.1569 5.84367 20.834 7.91658 20.834H17.0833C18.0778 20.834 19.0316 20.4389 19.7349 19.7356C20.4382 19.0324 20.8333 18.0785 20.8333 17.084V7.91732C20.8333 5.8444 19.1562 4.16732 17.0833 4.16732H7.91658ZM17.9687 5.72982C18.314 5.72982 18.6452 5.867 18.8894 6.11119C19.1336 6.35538 19.2708 6.68657 19.2708 7.0319C19.2708 7.37723 19.1336 7.70842 18.8894 7.95261C18.6452 8.1968 18.314 8.33398 17.9687 8.33398C17.6233 8.33398 17.2921 8.1968 17.048 7.95261C16.8038 7.70842 16.6666 7.37723 16.6666 7.0319C16.6666 6.68657 16.8038 6.35538 17.048 6.11119C17.2921 5.867 17.6233 5.72982 17.9687 5.72982ZM12.4999 7.29232C13.8813 7.29232 15.206 7.84105 16.1828 8.8178C17.1595 9.79455 17.7083 11.1193 17.7083 12.5007C17.7083 13.882 17.1595 15.2067 16.1828 16.1835C15.206 17.1603 13.8813 17.709 12.4999 17.709C11.1186 17.709 9.79382 17.1603 8.81707 16.1835C7.84032 15.2067 7.29158 13.882 7.29158 12.5007C7.29158 11.1193 7.84032 9.79455 8.81707 8.8178C9.79382 7.84105 11.1186 7.29232 12.4999 7.29232ZM12.4999 9.37565C11.6711 9.37565 10.8763 9.70489 10.2902 10.2909C9.70416 10.877 9.37492 11.6718 9.37492 12.5007C9.37492 13.3295 9.70416 14.1243 10.2902 14.7104C10.8763 15.2964 11.6711 15.6257 12.4999 15.6257C13.3287 15.6257 14.1236 15.2964 14.7096 14.7104C15.2957 14.1243 15.6249 13.3295 15.6249 12.5007C15.6249 11.6718 15.2957 10.877 14.7096 10.2909C14.1236 9.70489 13.3287 9.37565 12.4999 9.37565Z" fill="black"/>
</svg>
