<svg width="28" height="28" viewBox="0 0 28 28" fill="none" xmlns="http://www.w3.org/2000/svg">
<path d="M14 15.168C15.933 15.168 17.5 13.601 17.5 11.668C17.5 9.73497 15.933 8.16797 14 8.16797C12.067 8.16797 10.5 9.73497 10.5 11.668C10.5 13.601 12.067 15.168 14 15.168Z" stroke="white" stroke-width="2.5" stroke-linecap="round" stroke-linejoin="round"/>
<path d="M14.0001 2.33398C11.5247 2.33398 9.15076 3.31732 7.40042 5.06765C5.65008 6.81799 4.66675 9.19196 4.66675 11.6673C4.66675 13.8747 5.13575 15.319 6.41675 16.9173L14.0001 25.6673L21.5834 16.9173C22.8644 15.319 23.3334 13.8747 23.3334 11.6673C23.3334 9.19196 22.3501 6.81799 20.5997 5.06765C18.8494 3.31732 16.4754 2.33398 14.0001 2.33398Z" stroke="white" stroke-width="2.5" stroke-linecap="round" stroke-linejoin="round"/>
</svg>
