<svg width="80" height="80" viewBox="0 0 80 80" fill="none" xmlns="http://www.w3.org/2000/svg">
<ellipse cx="39.5" cy="40" rx="25.5" ry="26" fill="white"/>
<path d="M40 10C23.4578 10 10 23.4578 10 40C10 56.5422 23.4578 70 40 70C56.5422 70 70 56.5422 70 40C70 23.4578 56.5422 10 40 10ZM54.2672 54.2672C53.7984 54.7357 53.1628 54.9988 52.5 54.9988C51.8372 54.9988 51.2016 54.7357 50.7328 54.2672L44.0391 47.575C41.2112 49.5209 37.7582 50.3398 34.3576 49.8709C30.9571 49.4021 27.8545 47.6793 25.6587 45.0407C23.463 42.4021 22.3325 39.0382 22.4893 35.6091C22.646 32.1799 24.0786 28.9332 26.5059 26.5059C28.9332 24.0786 32.1799 22.646 35.6091 22.4893C39.0382 22.3325 42.4021 23.463 45.0407 25.6587C47.6793 27.8545 49.4021 30.9571 49.8709 34.3576C50.3398 37.7582 49.5209 41.2112 47.575 44.0391L54.2672 50.7328C54.7357 51.2016 54.9988 51.8372 54.9988 52.5C54.9988 53.1628 54.7357 53.7984 54.2672 54.2672Z" fill="#FFAC12"/>
<path d="M36.25 45C41.0825 45 45 41.0825 45 36.25C45 31.4175 41.0825 27.5 36.25 27.5C31.4175 27.5 27.5 31.4175 27.5 36.25C27.5 41.0825 31.4175 45 36.25 45Z" fill="#FFAC12"/>
</svg>
