<svg width="20" height="18" viewBox="0 0 20 18" fill="none" xmlns="http://www.w3.org/2000/svg">
<path d="M6.86922 5.50543L1.55255 6.19918L1.45838 6.21643C1.31583 6.25049 1.18588 6.31799 1.08179 6.41203C0.977707 6.50608 0.903219 6.6233 0.865934 6.75174C0.82865 6.88015 0.829905 7.01519 0.869572 7.14303C0.909239 7.27088 0.985896 7.38697 1.09172 7.47943L4.94338 10.8537L4.03505 15.6199L4.02422 15.7024C4.01549 15.8351 4.0461 15.9675 4.11292 16.0861C4.17974 16.2046 4.28037 16.305 4.4045 16.3771C4.52862 16.4491 4.67179 16.4901 4.81934 16.496C4.96689 16.5019 5.11352 16.4723 5.24422 16.4104L9.99922 14.1604L14.7434 16.4104L14.8267 16.4449C14.9643 16.4937 15.1138 16.5086 15.2598 16.4882C15.4059 16.4679 15.5434 16.4129 15.658 16.3289C15.7727 16.2449 15.8605 16.135 15.9124 16.0104C15.9643 15.8858 15.9785 15.7511 15.9534 15.6199L15.0442 10.8537L18.8975 7.47868L18.9625 7.41493C19.0554 7.31201 19.1163 7.18877 19.139 7.05778C19.1617 6.92678 19.1454 6.79271 19.0918 6.66923C19.0382 6.54574 18.9492 6.43725 18.8338 6.35482C18.7184 6.27238 18.5808 6.21893 18.435 6.19993L13.1184 5.50543L10.7417 1.17043C10.6729 1.04483 10.5665 0.939066 10.4344 0.865109C10.3023 0.791151 10.1498 0.751953 9.99422 0.751953C9.83864 0.751953 9.68616 0.791151 9.55406 0.865109C9.42195 0.939066 9.31549 1.04483 9.24672 1.17043L6.86922 5.50543Z" fill="#F2A516"/>
</svg>
