<svg width="26" height="28" viewBox="0 0 26 28" fill="none" xmlns="http://www.w3.org/2000/svg">
<path d="M22.625 26C22.9897 26 23.3394 25.8555 23.5973 25.5983C23.8551 25.3411 24 24.9923 24 24.6286V22.9198C24.0055 19.0715 18.5357 16.0571 13 16.0571C7.46425 16.0571 2 19.0715 2 22.9198V24.6286C2 24.9923 2.14487 25.3411 2.40273 25.5983C2.66059 25.8555 3.01033 26 3.375 26H22.625ZM17.9555 6.94263C17.9555 7.5917 17.8273 8.23442 17.5783 8.83409C17.3292 9.43376 16.9642 9.97863 16.5041 10.4376C16.0439 10.8966 15.4976 11.2606 14.8964 11.509C14.2952 11.7574 13.6508 11.8853 13 11.8853C12.3492 11.8853 11.7048 11.7574 11.1036 11.509C10.5024 11.2606 9.95609 10.8966 9.49593 10.4376C9.03577 9.97863 8.67075 9.43376 8.42171 8.83409C8.17268 8.23442 8.0445 7.5917 8.0445 6.94263C8.0445 5.63176 8.56659 4.37459 9.49593 3.44766C10.4253 2.52074 11.6857 2 13 2C14.3143 2 15.5747 2.52074 16.5041 3.44766C17.4334 4.37459 17.9555 5.63176 17.9555 6.94263Z" stroke="white" stroke-width="2.5" stroke-linecap="round" stroke-linejoin="round"/>
</svg>
